<?xml version="1.0" encoding="UTF-8"?><svg id="Layer_1" xmlns="http://www.w3.org/2000/svg" xmlns:xlink="http://www.w3.org/1999/xlink" viewBox="0 0 64 64"><defs><style>.cls-1{fill:#38e825;stroke:#23840b;stroke-miterlimit:10;}.cls-2{filter:url(#outer-glow-2);}.cls-3{fill:#fff;}</style><filter id="outer-glow-2" x="4.68" y="-.97" width="54" height="66" filterUnits="userSpaceOnUse"><feOffset dx="0" dy="0"/><feGaussianBlur result="blur" stdDeviation="3"/><feFlood flood-color="#f7f7f7" flood-opacity=".4"/><feComposite in2="blur" operator="in"/><feComposite in="SourceGraphic"/></filter></defs><circle class="cls-1" cx="32.5" cy="32" r="30"/><text/><g class="cls-2"><path class="cls-3" d="M32.59,38.06v-7.73h16.29v18.27c-1.58,1.88-3.88,3.53-6.88,4.96-3.01,1.43-6.05,2.14-9.13,2.14-3.92,0-7.33-1.01-10.24-3.02-2.91-2.01-5.1-4.89-6.56-8.63-1.46-3.74-2.2-7.82-2.2-12.22,0-4.78.82-9.02,2.45-12.73s4.03-6.56,7.18-8.54c2.4-1.52,5.39-2.28,8.96-2.28,4.65,0,8.28,1.19,10.89,3.58s4.29,5.69,5.04,9.9l-7.51,1.72c-.53-2.25-1.52-4.03-2.97-5.33-1.46-1.3-3.27-1.95-5.45-1.95-3.3,0-5.93,1.28-7.88,3.85-1.95,2.57-2.92,6.37-2.92,11.42,0,5.44.99,9.53,2.96,12.25,1.97,2.72,4.56,4.08,7.76,4.08,1.58,0,3.17-.38,4.76-1.14,1.59-.76,2.96-1.68,4.1-2.77v-5.82h-8.66Z"/></g></svg>